<svg viewBox="0 0 24 24" fill="none" xmlns="http://www.w3.org/2000/svg">
<path d="M8.6 14.9a2.1 2.1 0 0 1-.2-3.7c.9-.4.9-1.5 0-1.8-1.1-.4-2.3.3-2.7 1.4a3.7 3.7 0 0 0 3.2 5.2c.6 0 1.2-.1 1.8-.4-.7-.3-1.4-.8-2.1-.7zm6.8-7.4c-1.4-1.4-3.6-1.4-5 0a3.6 3.6 0 0 0-1 2.5c0 .2 0 .4.1.6-1.1-.8-2.6-.6-3.4.4-.8 1.1-.6 2.6.4 3.4.3.2.7.4 1.1.4.2 0 .4 0 .6-.1a3.6 3.6 0 0 0 2.5-1c1.4-1.4 1.4-3.6 0-5 0-.1-.2-.1-.3-.2zm3.3-2.8c-2.2-2.2-5.8-2.2-8 0s-2.2 5.8 0 8 5.8 2.2 8 0 2.2-5.8 0-8zm-1.4 6.6c-1.4 1.4-3.6 1.4-5 0s-1.4-3.6 0-5 3.6-1.4 5 0 1.4 3.6 0 5z" fill="#ffffff"/>
</svg>